<?xml version="1.0" encoding="UTF-8" standalone="no"?>
<svg width="456" height="456" viewBox="0 0 456 456" version="1.1" xmlns="http://www.w3.org/2000/svg">
    <g fill="#ffffff">
        <path d="M 228 104 C 159 104 112 152 112 220 C 112 268 136 302 176 324 C 205 340 216 352 216 374 L 216 390 L 240 390 L 240 370 C 240 344 226 326 195 306 C 164 286 150 260 150 224 C 150 176 185 142 228 142 C 271 142 306 176 306 223 C 306 258 291 284 262 305 L 278 326 C 317 299 344 264 344 218 C 344 151 297 104 228 104 Z" />
        <circle cx="228" cy="406" r="18" />
    </g>
</svg>
